<?xml version="1.0" standalone="no"?>
<!DOCTYPE svg PUBLIC "-//W3C//DTD SVG 1.1//EN" "http://www.w3.org/Graphics/SVG/1.1/DTD/svg11.dtd">
<svg xmlns="http://www.w3.org/2000/svg">
<defs >
<font id="Asap" horiz-adv-x="442" ><font-face
    font-family="Asap"
    units-per-em="1000"
    panose-1="2 0 5 6 4 0 0 2 0 4"
    ascent="934"
    descent="-212"
    alphabetic="0" />
<glyph unicode=" " glyph-name="space" horiz-adv-x="240" />
<glyph unicode="!" glyph-name="exclam" horiz-adv-x="294" d="M142 202Q112 202 112 224V680Q112 702 152 702H172Q211 702 211 680L184 224Q182 202 153 202H142ZM100 20V86Q100 108 140 108H157Q197 108 197 86V20Q197 -2 157 -2H140Q100 -2 100 20Z" />
<glyph unicode="&quot;" glyph-name="quotedbl" horiz-adv-x="319" d="M245 484Q242 472 223 472T200 484L178 668V680Q178 702 218 702H228Q268 702 268 680V666L245 484ZM117 484Q114 472 95 472T72 484L50 668V680Q50 702 90 702H100Q140 702 140 680V666L117 484Z" />
<glyph unicode="#" glyph-name="numbersign" horiz-adv-x="534" d="M33 196Q13 196 13 226V243Q13 273 33 273H124L150 420H69Q49 420 49 450V467Q49 497 69 497H163L194 664Q195 672 198 676Q206 686 238 686H242Q270 686 270 671L237 497H356L386 664Q387 672
390 676Q398 686 430 686H435Q463 686 463 671L432 497H500Q520 497 520 467V450Q520 420 500 420H417L392 273H468Q488 273 488 243V226Q488 196 468 196H376L345 20Q342 8 334 3T302 -2H298Q270 -2 270 15L302 196H184L152 20Q150 12 148 8Q141 -2 109 -2H105Q77
-2 77 15L109 196H33ZM199 273H317L343 420H225L199 273Z" />
<glyph unicode="$" glyph-name="dollar" horiz-adv-x="496" d="M35 67Q35 79 48 100T70 121Q73 121 94 108T152 81T233 66V324Q195 339 179 346T132 371T86 407Q48 455 48 525T98 643T233 700V742Q233 758 253 758T273 742V702Q323 701 377 685T431 645Q431 634
419 613T400 592T378 601Q329 628 273 630V397Q319 381 342 370T400 335Q464 289 464 198T413 55T273 -5V-55Q273 -71 253 -71T233 -55V-6Q154 -4 95 20T35 67ZM189 619T164 592T139 522T163 455T233 412V627Q189 619 164 592ZM318 77T345 110T373 188T347 260T273
308V69Q318 77 345 110Z" />
<glyph unicode="%" glyph-name="percent" horiz-adv-x="765" d="M161 2Q161 7 165 12L538 687Q548 706 578 706H583Q607 706 607 697Q607 695 603 687L230 12Q220 -7 190 -7H185Q161 -7 161 2ZM197 381Q60 381 60 543T197 706Q254 706 294 670T334 543T294 417T197
381ZM197 436Q270 436 270 542Q270 621 237 642Q221 652 198 652T159 642T136 614Q126 585 126 549T129 493T150 454T197 436ZM568 -5Q431 -5 431 157T568 320Q625 320 665 284T705 157T665 31T568 -5ZM501 210T499 194T497 153T500 107T521 68T568 50Q641 50 641
156Q641 235 608 256Q592 266 569 266T530 256T508 228Z" />
<glyph unicode="&amp;" glyph-name="ampersand" horiz-adv-x="624" d="M50 212Q50 276 88 325T176 387V391Q131 409 102 447T73 538Q73 620 128 663T272 706T360 674Q360 665 354 645T338 625Q337 625 317 629T268 634T215 624T178 595Q157 563 157 524T191 446T291
408H409L421 513Q423 535 453 535H463Q493 535 493 513V408H577Q597 408 597 378V366Q597 336 577 336H493V140Q493 66 547 66Q564 66 576 68T590 71Q599 71 605 53T611 24Q611 -6 541 -6T436 37Q365 -6 273 -6Q191 -6 124 40Q50 93 50 212ZM137 204Q137 153 161
121T216 77T281 66Q344 66 411 103Q409 121 409 132V336H287Q214 336 176 306T137 204Z" />
<glyph unicode="&apos;" glyph-name="quotesingle" horiz-adv-x="183" d="M117 484Q114 472 95 472T72 484L50 668V680Q50 702 90 702H100Q140 702 140 680V666L117 484Z" />
<glyph unicode="(" glyph-name="parenleft" horiz-adv-x="301" d="M55 135T55 286T104 566T239 773Q249 783 259 783T280 776T290 758T281 736Q213 656 175 539T136 287T174 35T280 -164Q289 -174 289 -183T280 -202T261 -212T239 -201Q154 -123 105 6Z" />
<glyph unicode=")" glyph-name="parenright" horiz-adv-x="301" d="M85 -90T125 29T165 284T127 537T21 736Q12 746 12 755T21 774T40 784T62 773Q147 695 196 566T246 286T197 6T62 -201Q52 -211 41 -211T20 -203T9 -187T16 -170Q85 -90 125 29Z" />
<glyph unicode="*" glyph-name="asterisk" horiz-adv-x="373" d="M108 423Q100 414 93 414T79 419T71 433T76 447L147 546L49 578Q35 582 35 593T40 610T52 617T62 616L161 584V689Q161 709 181 709T201 689V584L300 616Q303 617 309 617T321 611T327 593T313
578L214 546L286 447Q291 439 291 433T284 421T268 414T254 423L181 524L108 423Z" />
<glyph unicode="+" glyph-name="plus" horiz-adv-x="560" d="M68 197Q57 197 53 202T48 223V230Q48 264 68 264H247V443Q247 463 277 463H284Q314 463 314 443V264H492Q512 264 512 234V227Q512 197 492 197H314V18Q314 -2 284 -2H277Q247 -2 247 18V197H68Z" />
<glyph unicode="," glyph-name="comma" horiz-adv-x="198" d="M55 76Q55 108 95 108H104Q144 108 144 80Q144 -1 108 -58T42 -116T12 -101Q12 -95 21 -77Q55 -9 55 76Z" />
<glyph unicode="-" glyph-name="hyphen" horiz-adv-x="320" d="M64 230Q44 230 44 260V270Q44 300 64 300H253Q273 300 273 270V260Q273 230 253 230H64Z" />
<glyph unicode="." glyph-name="period" horiz-adv-x="198" d="M51 20V86Q51 108 91 108H108Q148 108 148 86V20Q148 -2 108 -2H91Q51 -2 51 20Z" />
<glyph unicode="/" glyph-name="slash" horiz-adv-x="370" d="M338 703H342Q366 703 366 683Q366 676 363 668L53 -53Q43 -76 20 -76H16Q-10 -76 -10 -56Q-10 -48 -7 -41L303 680Q313 703 338 703Z" />
<glyph unicode="0" glyph-name="zero" horiz-adv-x="535" d="M495 174T430 84T267 -6T104 84T39 350T104 616T266 706T429 616T495 350ZM124 204T165 135T266 66T368 135T410 350T369 565T267 634T165 565T124 350Z" />
<glyph unicode="1" glyph-name="one" horiz-adv-x="535" d="M43 30V42Q43 72 63 72H237V611L60 581Q51 581 46 598T40 630T58 651L290 702Q302 702 311 696T321 681V72H469Q489 72 489 42V30Q489 0 469 0H63Q43 0 43 30Z" />
<glyph unicode="2" glyph-name="two" horiz-adv-x="535" d="M63 0T57 14T51 42T55 61Q98 115 210 254T351 439T381 531T348 606T265 634T183 621T130 596T105 583T87 602T74 633Q74 662 137 684T254 706Q352 706 409 661T467 536Q467 486 449 445T392 352T238
160L165 71H453Q473 71 473 41V30Q473 0 453 0H71Q63 0 57 14Z" />
<glyph unicode="3" glyph-name="three" horiz-adv-x="535" d="M45 51Q45 65 58 83T80 101Q81 101 133 84T228 66T302 77T357 120T382 204Q382 276 344 306T232 336H199Q179 336 179 366V377Q179 407 199 407H228Q297 407 329 449T361 533T334 604T242 634Q171
634 120 610Q103 601 98 601Q90 601 78 621T65 653Q65 674 128 690T244 706Q336 706 391 661T446 529Q446 480 417 444T343 391V387Q393 374 431 325T469 212T449 106T394 40Q328 -6 246 -6T104 12T45 51Z" />
<glyph unicode="4" glyph-name="four" horiz-adv-x="535" d="M42 167Q34 167 26 185T18 215T20 229L349 688Q360 702 383 702H399Q429 702 429 680V239H496Q516 239 516 209V197Q516 167 496 167H429V20Q429 -2 399 -2H376Q346 -2 346 20V167H42ZM346 239V557L342
559L117 239H346Z" />
<glyph unicode="5" glyph-name="five" horiz-adv-x="535" d="M47 54Q47 68 60 86T82 104Q83 104 132 85T239 66T343 104T388 211T342 315T208 350H123Q107 350 101 357T95 380L112 670Q113 700 144 700H410Q430 700 430 670V658Q430 628 410 628H193L180 422H232Q321
422 393 378Q430 356 452 314T474 211T453 106T396 38Q328 -6 242 -6T102 13T47 54Z" />
<glyph unicode="6" glyph-name="six" horiz-adv-x="535" d="M51 247Q51 329 78 404T146 532T233 624T316 683T372 702T399 682T409 652T401 638Q207 558 154 372Q211 405 290 405T425 349T480 202T419 53T258 -5T105 60T51 247ZM135 239Q135 144 173 106T264 67T355
101T395 201T357 300T259 333T139 299Q135 259 135 239Z" />
<glyph unicode="7" glyph-name="seven" horiz-adv-x="535" d="M97 16Q97 18 101 28L390 628H75Q55 628 55 658V670Q55 700 75 700H470Q476 700 483 682T490 654T488 638L192 14Q184 -2 152 -2H140Q97 -2 97 16Z" />
<glyph unicode="8" glyph-name="eight" horiz-adv-x="535" d="M51 202Q51 275 80 315T162 380Q79 429 79 533Q79 615 132 660T269 706T406 661T461 533Q461 426 364 381Q421 355 452 316T484 202Q484 100 424 47T268 -6T112 47T51 202ZM377 533Q377 584 347 609T270
634T193 609T163 533Q163 476 203 448Q233 428 291 408Q377 458 377 533ZM137 202Q137 137 174 102T267 66T360 101T398 202Q398 246 378 270Q367 284 358 293T329 311T299 324T263 337T229 350Q137 296 137 202Z" />
<glyph unicode="9" glyph-name="nine" horiz-adv-x="535" d="M145 -2T136 18T126 48T134 62Q328 142 381 328Q324 295 245 295T110 351T55 498T116 647T277 705T430 640T484 453Q484 371 457 296T389 168T302 76T219 17T163 -2ZM140 433T178 400T276 367T396 401Q400
441 400 461Q400 556 362 594T271 633T180 599T140 499Z" />
<glyph unicode=":" glyph-name="colon" horiz-adv-x="198" d="M91 415Q51 415 51 437V503Q51 525 91 525H108Q148 525 148 503V437Q148 415 108 415H91ZM51 20V86Q51 108 91 108H108Q148 108 148 86V20Q148 -2 108 -2H91Q51 -2 51 20Z" />
<glyph unicode=";" glyph-name="semicolon" horiz-adv-x="198" d="M91 415Q51 415 51 437V503Q51 525 91 525H108Q148 525 148 503V437Q148 415 108 415H91ZM55 76Q55 108 95 108H104Q144 108 144 80Q144 -1 108 -58T42 -116T12 -101Q12 -95 21 -77Q55 -9 55 76Z" />
<glyph unicode="&lt;" glyph-name="less" horiz-adv-x="560" d="M41 219V236Q41 260 66 271L477 445Q484 448 492 448Q513 448 513 422V408Q513 382 489 373L133 228L489 82Q513 72 513 47V33Q513 7 492 7Q484 7 477 10L66 184Q41 195 41 219Z" />
<glyph unicode="=" glyph-name="equal" horiz-adv-x="560" d="M78 271Q48 271 48 301V308Q48 338 78 338H482Q512 338 512 308V301Q512 271 482 271H78ZM78 107Q48 107 48 137V145Q48 175 78 175H482Q512 175 512 145V137Q512 107 482 107H78Z" />
<glyph unicode="&gt;" glyph-name="greater" horiz-adv-x="560" d="M46 32V46Q46 70 70 81L426 227L70 372Q46 381 46 407V421Q46 447 67 447Q74 447 82 444L493 270Q518 259 518 235V218Q518 194 493 183L82 9Q74 6 67 6Q46 6 46 32Z" />
<glyph unicode="?" glyph-name="question" horiz-adv-x="445" d="M149 225Q149 298 235 384Q269 418 284 434T314 478T330 528Q330 632 204 632Q166 632 124 615T80 598Q73 598 61 618T48 649Q48 673 104 689T220 706Q316 706 370 658T425 538Q425 469 360 402Q332
373 304 346Q234 278 227 222Q224 202 194 202H179Q149 202 149 225ZM136 20V86Q136 108 176 108H193Q233 108 233 86V20Q233 -2 193 -2H176Q136 -2 136 20Z" />
<glyph unicode="@" glyph-name="at" horiz-adv-x="974" d="M84 237Q84 434 214 569T534 705Q685 705 776 616T867 385T808 148T657 54Q612 54 586 78T558 137V144Q509 54 423 54Q375 54 330 90Q306 108 292 146T278 236Q278 355 336 430T489 505Q553 505 600 458Q609
486 614 493Q620 502 635 502H641Q663 502 663 481Q630 173 630 149Q630 107 670 107Q726 107 769 189T813 380Q813 507 736 584T534 661Q367 661 253 538T138 237Q138 95 213 7T410 -82Q468 -82 514 -68T564 -53Q578 -53 578 -76Q578 -102 522 -114T410 -126Q265
-126 175 -26T84 237ZM351 241Q351 115 439 115Q473 115 508 148T568 256Q581 390 587 409Q546 443 495 443Q351 443 351 241Z" />
<glyph unicode="A" glyph-name="A" horiz-adv-x="613" d="M12 15Q12 20 15 29L252 686Q257 702 292 702H321Q356 702 361 686L598 28Q601 21 601 15Q601 -2 558 -2H550Q515 -2 510 14L451 178H157L100 14Q95 -2 60 -2H55Q12 -2 12 15ZM185 254H424L319 552L306
610L290 552L185 254Z" />
<glyph unicode="B" glyph-name="B" horiz-adv-x="593" d="M97 30V670Q97 700 127 700H306Q415 700 472 652T530 523Q530 473 497 428T420 371V367Q435 365 464 349T511 317T545 269T560 201Q560 0 299 0H127Q97 0 97 30ZM185 398H301Q361 398 400 432T439 518T405
597T297 624H185V398ZM185 76H331Q397 76 433 110T469 203T430 291T314 322H185V76Z" />
<glyph unicode="C" glyph-name="C" horiz-adv-x="619" d="M57 350Q57 706 381 706Q453 706 512 686T572 644Q572 630 560 608T538 586Q536 586 517 597T461 619T383 630Q262 630 205 563T148 351T204 138T379 70Q424 70 464 82T526 107T551 120Q560 120 573 98T586
66Q586 43 524 19T379 -6Q214 -6 136 80T57 350Z" />
<glyph unicode="D" glyph-name="D" horiz-adv-x="695" d="M97 30V670Q97 700 127 700H329Q469 700 553 617T638 350T554 83T329 0H127Q97 0 97 30ZM185 76H322Q423 76 485 142T547 349T485 557T322 624H185V76Z" />
<glyph unicode="E" glyph-name="E" horiz-adv-x="546" d="M97 30V670Q97 700 127 700H476Q496 700 496 670V654Q496 624 476 624H185V396H446Q466 396 466 366V350Q466 320 446 320H185V76H477Q497 76 497 46V30Q497 0 477 0H127Q97 0 97 30Z" />
<glyph unicode="F" glyph-name="F" horiz-adv-x="503" d="M97 20V670Q97 700 127 700H442Q462 700 462 670V654Q462 624 442 624H185V396H424Q444 396 444 366V350Q444 320 424 320H185V20Q185 -2 145 -2H137Q97 -2 97 20Z" />
<glyph unicode="G" glyph-name="G" horiz-adv-x="672" d="M57 344Q57 706 381 706Q453 706 512 686T572 644Q572 630 560 608T538 586Q536 586 517 597T461 619T383 630Q256 630 202 560T148 353Q148 70 372 70Q451 70 501 83V285H384Q364 285 364 315V331Q364
361 384 361H559Q589 361 589 331V66Q589 -6 366 -6Q57 -6 57 344Z" />
<glyph unicode="H" glyph-name="H" horiz-adv-x="733" d="M97 20V680Q97 702 137 702H145Q185 702 185 680V397H547V680Q547 702 587 702H595Q635 702 635 680V20Q635 -2 595 -2H587Q547 -2 547 20V321H185V20Q185 -2 145 -2H137Q97 -2 97 20Z" />
<glyph unicode="I" glyph-name="I" horiz-adv-x="282" d="M97 20V680Q97 702 137 702H145Q185 702 185 680V20Q185 -2 145 -2H137Q97 -2 97 20Z" />
<glyph unicode="J" glyph-name="J" horiz-adv-x="402" d="M6 26Q6 36 12 58T28 81Q29 81 50 77T91 72Q165 72 198 101T231 195V680Q231 702 271 702H279Q319 702 319 680V205Q319 -6 107 -6Q6 -6 6 26Z" />
<glyph unicode="K" glyph-name="K" horiz-adv-x="576" d="M97 20V680Q97 702 137 702H145Q185 702 185 680V374H189L435 688Q446 702 489 702H499Q534 702 534 689Q534 680 524 669L274 357L577 28Q586 18 586 12Q586 -2 542 -2H530Q487 -2 475 11L189 333H185V20Q185
-2 145 -2H137Q97 -2 97 20Z" />
<glyph unicode="L" glyph-name="L" horiz-adv-x="484" d="M97 30V680Q97 702 137 702H145Q185 702 185 680V76H460Q480 76 480 46V30Q480 0 460 0H127Q97 0 97 30Z" />
<glyph unicode="M" glyph-name="M" horiz-adv-x="843" d="M90 20V680Q90 702 130 702H166Q198 702 208 684L397 356L423 293L449 350L638 684Q648 702 680 702H713Q753 702 753 680V20Q753 -2 713 -2H706Q666 -2 666 20V558L465 208Q458 195 443 195H403Q388 195
381 208L177 564V20Q177 -2 137 -2H130Q90 -2 90 20Z" />
<glyph unicode="N" glyph-name="N" horiz-adv-x="719" d="M90 20V680Q90 702 130 702H151Q179 702 193 683L512 201L542 145V680Q542 702 582 702H589Q629 702 629 680V20Q629 -2 589 -2H569Q543 -2 534 12L204 510L177 561V20Q177 -2 137 -2H130Q90 -2 90 20Z" />
<glyph unicode="O" glyph-name="O" horiz-adv-x="731" d="M57 177T57 352T135 616T365 706T595 617T674 352T595 86T366 -6T136 85ZM259 70T365 70T527 142T583 351T527 559T365 630T204 560T148 352T203 142Z" />
<glyph unicode="P" glyph-name="P" horiz-adv-x="570" d="M85 20V670Q85 700 115 700H318Q395 700 460 666Q497 647 519 606T541 508T524 413T482 352T425 318Q376 298 328 298H173V20Q173 -2 133 -2H125Q85 -2 85 20ZM173 374H329Q367 374 404 398Q424 411 437
438T450 504Q450 571 410 597T315 624H173V374Z" />
<glyph unicode="Q" glyph-name="Q" horiz-adv-x="731" d="M57 347Q57 523 136 614T365 706T595 614T674 347Q674 205 623 118T473 5V1L670 -61Q684 -66 684 -78T671 -119T642 -148Q634 -148 464 -81T246 6Q57 81 57 347ZM148 211T204 139T365 67T526 139T583 347T526
556T365 630T205 557T148 348Z" />
<glyph unicode="R" glyph-name="R" horiz-adv-x="610" d="M97 20V670Q97 700 127 700H295Q415 700 475 658T536 523Q536 400 421 354V350Q450 340 469 311T511 225L589 28Q592 19 592 14Q592 -2 550 -2H540Q506 -2 500 14L424 210Q402 267 369 287T275 308H185V20Q185
-2 145 -2H137Q97 -2 97 20ZM185 384H317Q370 384 407 420T445 511T409 595T310 624H185V384Z" />
<glyph unicode="S" glyph-name="S" horiz-adv-x="500" d="M37 67Q37 79 50 100T72 121Q75 121 97 109T159 83T250 70T338 103T375 187T342 268T261 315T165 353T84 415T50 522Q50 605 111 655T272 706Q321 706 377 688T433 645Q433 634 421 613T401 592Q397 592
380 602Q329 630 270 630T176 602T141 518T206 432Q234 419 269 407T338 378T401 339T448 279T466 191Q466 99 406 47T254 -6T100 19T37 67Z" />
<glyph unicode="T" glyph-name="T" horiz-adv-x="549" d="M232 20V624H40Q20 624 20 654V670Q20 700 40 700H509Q529 700 529 670V654Q529 624 509 624H320V20Q320 -2 280 -2H272Q232 -2 232 20Z" />
<glyph unicode="U" glyph-name="U" horiz-adv-x="712" d="M83 224V680Q83 702 123 702H131Q171 702 171 680V221Q171 155 223 113T356 70T488 112T541 221V680Q541 702 581 702H589Q629 702 629 680V224Q629 115 558 55T356 -6T154 54T83 224Z" />
<glyph unicode="V" glyph-name="V" horiz-adv-x="617" d="M21 685Q21 702 64 702H73Q108 702 113 686L298 152L309 100L322 153L507 686Q512 702 547 702H553Q596 702 596 685Q596 680 593 671L364 14Q359 -2 324 -2H293Q258 -2 253 14L24 672Q21 680 21 685Z" />
<glyph unicode="W" glyph-name="W" horiz-adv-x="882" d="M15 685Q15 702 58 702H68Q104 702 108 686L235 194Q242 166 247 134T253 101L398 685Q402 702 437 702H453Q488 702 492 685L616 193L633 101L778 686Q782 702 818 702H824Q867 702 867 685Q867 683 864
671L691 14Q687 -2 651 -2H610Q574 -2 570 14L461 421L440 551L419 421L310 14Q306 -2 270 -2H229Q193 -2 189 14L18 671Q15 683 15 685Z" />
<glyph unicode="X" glyph-name="X" horiz-adv-x="611" d="M20 15Q20 22 28 33L252 365L52 667Q44 678 44 685Q44 702 90 702H104Q137 702 147 687L307 446L472 688Q481 702 515 702H521Q567 702 567 685Q567 681 559 667L359 370L584 33Q592 22 592 15Q592 -2
546 -2H530Q497 -2 487 13L303 288L117 12Q108 -2 74 -2H66Q20 -2 20 15Z" />
<glyph unicode="Y" glyph-name="Y" horiz-adv-x="559" d="M235 20V359L26 667Q18 678 18 685Q18 702 64 702H75Q108 702 118 687L282 441L450 688Q459 702 500 702T541 685Q541 681 533 667L323 356V20Q323 -2 283 -2H275Q235 -2 235 20Z" />
<glyph unicode="Z" glyph-name="Z" horiz-adv-x="616" d="M62 0Q55 0 47 19T38 49T41 65L451 624H91Q71 624 71 658V666Q71 700 91 700H549Q555 700 563 681T571 651T568 635L158 76H549Q569 76 569 42V34Q569 0 549 0H62Z" />
<glyph unicode="[" glyph-name="bracketleft" horiz-adv-x="291" d="M90 -108V738Q90 768 120 768H241Q261 768 261 739V734Q261 705 241 705H164V-76H241Q261 -76 261 -105V-109Q261 -138 241 -138H120Q90 -138 90 -108Z" />
<glyph unicode="\" glyph-name="backslash" horiz-adv-x="361" d="M5 682Q5 702 29 702H33Q58 702 68 679L354 15Q357 8 357 0Q357 -20 331 -20H327Q304 -20 294 3L8 667Q5 674 5 682Z" />
<glyph unicode="]" glyph-name="bracketright" horiz-adv-x="291" d="M50 -76H127V705H50Q30 705 30 734V739Q30 768 50 768H171Q201 768 201 738V-108Q201 -138 171 -138H50Q30 -138 30 -109V-105Q30 -76 50 -76Z" />
<glyph unicode="^" glyph-name="asciicircum" horiz-adv-x="450" d="M80 320Q53 320 53 341Q53 348 56 355L181 664Q188 684 215 684H235Q260 684 269 664L394 355Q397 348 397 341Q397 320 370 320H366Q340 320 331 343L225 604L118 343Q108 320 84 320H80Z" />
<glyph unicode="_" glyph-name="underscore" horiz-adv-x="534" d="M-1 -90H535Q555 -90 555 -110V-118Q555 -138 535 -138H-1Q-21 -138 -21 -118V-110Q-21 -90 -1 -90Z" />
<glyph unicode="`" glyph-name="grave" horiz-adv-x="320" d="M242 625T242 615T213 605T168 623Q80 724 77 729T74 739Q74 752 121 752T184 726Q242 625 242 615Z" />
<glyph unicode="a" glyph-name="a" horiz-adv-x="545" d="M381 326V373Q381 457 271 457Q199 457 138 426Q117 415 115 415Q105 415 93 435T80 465Q80 486 138 507T279 529T413 488T465 372V148Q465 88 470 61Q477 24 477 22Q477 10 458 5T429 -1T414 1T407 8T401
17T397 30T394 42T391 56T388 69Q320 -6 220 -6Q143 -6 96 32T49 149T103 267T226 315T381 326ZM139 149Q139 67 224 67Q273 67 308 85T381 136V254Q256 254 220 240Q201 233 180 222Q139 201 139 149Z" />
<glyph unicode="b" glyph-name="b" horiz-adv-x="569" d="M85 20V730Q85 752 125 752H129Q169 752 169 730V478Q235 529 319 529T459 460T515 267V258Q515 142 463 68T322 -6T162 69L146 10Q141 -2 119 -2H115Q85 -2 85 20ZM169 136Q232 67 298 67Q427 67 427
269Q427 358 394 406T296 455H290Q223 455 169 410V136Z" />
<glyph unicode="c" glyph-name="c" horiz-adv-x="485" d="M52 264Q52 339 72 393T128 476Q194 529 289 529Q347 529 393 515T439 483Q439 470 428 450T407 429Q406 429 404 430T400 431T396 433Q342 457 287 457Q142 457 142 266Q142 160 177 113T297 66Q358 66
410 92Q413 93 416 94T421 96Q431 96 443 77T455 45Q455 27 408 11T298 -6Q174 -6 113 58T52 264Z" />
<glyph unicode="d" glyph-name="d" horiz-adv-x="565" d="M405 69Q333 -6 245 -6T105 68T52 258V267Q52 390 108 459T248 529T398 478V730Q398 752 438 752H442Q482 752 482 730V148Q482 88 487 61Q494 24 494 22Q494 10 475 5T446 -1T431 1T424 8T418 17T414
30T411 42T408 56T405 69ZM140 269Q140 67 270 67Q335 67 398 136V410Q344 455 277 455H271Q207 454 174 406T140 269Z" />
<glyph unicode="e" glyph-name="e" horiz-adv-x="539" d="M175 -6T115 59T55 257T114 460T282 529Q494 529 494 268Q494 259 482 243T461 227H145Q151 144 188 105T299 66Q367 66 424 98Q443 108 445 108Q455 108 467 88T480 58Q480 38 426 16T300 -6Q175 -6 115
59ZM405 299Q405 457 285 457Q156 457 145 299H405Z" />
<glyph unicode="f" glyph-name="f" horiz-adv-x="325" d="M108 20V451H68Q48 451 48 481V493Q48 523 68 523H108V618Q108 704 154 732Q193 756 237 756Q310 756 310 726Q310 716 304 698T289 679Q287 679 275 681T242 684T206 670T192 610V523H279Q299 523 299
493V481Q299 451 279 451H192V20Q192 -2 152 -2H148Q108 -2 108 20Z" />
<glyph unicode="g" glyph-name="g" horiz-adv-x="546" d="M34 -81Q34 1 147 41Q83 68 83 124T159 207Q115 228 92 267T68 356Q68 431 120 480T268 529Q304 529 334 523H506Q526 523 526 493V481Q526 451 506 451H436Q469 411 469 356Q469 282 416 233T268 184H258Q172
180 172 142Q172 121 207 111T291 94T390 77T475 33T510 -55Q510 -123 444 -167T265 -212T93 -183T34 -81ZM156 256T268 256T381 356T269 457T156 357ZM121 -72Q121 -140 271 -140Q338 -140 379 -117T421 -60Q421 -33 398 -20Q360 1 262 14Q236 18 221 21Q182 6
152 -18T121 -72Z" />
<glyph unicode="h" glyph-name="h" horiz-adv-x="565" d="M92 20V730Q92 752 132 752H136Q176 752 176 730V460Q245 529 329 529Q386 529 432 500Q457 483 472 449T488 367V20Q488 -2 448 -2H444Q404 -2 404 20V359Q404 404 378 430T311 456T238 439T191 404L176
386V20Q176 -2 136 -2H132Q92 -2 92 20Z" />
<glyph unicode="i" glyph-name="i" horiz-adv-x="265" d="M127 649Q87 649 87 671V730Q87 752 127 752H139Q179 752 179 730V671Q179 649 139 649H127ZM91 20V503Q91 525 131 525H135Q175 525 175 503V20Q175 -2 135 -2H131Q91 -2 91 20Z" />
<glyph unicode="j" glyph-name="j" horiz-adv-x="276" d="M137 649Q97 649 97 671V730Q97 752 137 752H149Q189 752 189 730V671Q189 649 149 649H137ZM101 -66V503Q101 525 141 525H145Q185 525 185 503V-74Q185 -151 146 -181T56 -212Q-17 -212 -17 -182Q-17
-172 -11 -154T4 -135Q6 -135 18 -137T47 -140Q101 -140 101 -66Z" />
<glyph unicode="k" glyph-name="k" horiz-adv-x="521" d="M94 20V730Q94 752 134 752H138Q178 752 178 730V283H182L373 511Q384 525 426 525H430Q465 525 465 512Q465 503 455 492L269 272L475 28Q484 18 484 12Q484 -2 440 -2H436Q393 -2 382 11L182 248H178V20Q178
-2 138 -2H134Q94 -2 94 20Z" />
<glyph unicode="l" glyph-name="l" horiz-adv-x="297" d="M82 132V730Q82 752 122 752H126Q166 752 166 730V140Q166 66 220 66Q237 66 249 68T263 71Q272 71 278 53T284 24Q284 -6 211 -6Q161 -6 122 24T82 132Z" />
<glyph unicode="m" glyph-name="m" horiz-adv-x="848" d="M85 20V371Q85 432 80 458Q73 494 73 497Q73 509 92 514T121 520T136 518T143 512T149 503T153 491T156 479T159 466T162 454Q227 529 314 529Q423 529 457 446Q527 529 616 529Q673 529 718 500Q743 483
758 449T773 367V20Q773 -2 733 -2H729Q689 -2 689 20V359Q689 404 665 430T593 456Q531 456 470 387Q471 380 471 366V20Q471 -2 431 -2H427Q387 -2 387 20V359Q387 404 363 430T299 456T229 439T184 404L169 387V20Q169 -2 129 -2H125Q85 -2 85 20Z" />
<glyph unicode="n" glyph-name="n" horiz-adv-x="557" d="M86 20V371Q86 432 81 458Q74 494 74 497Q74 509 93 514T122 520T137 518T144 512T150 503T154 491T157 479T160 466T163 454Q230 529 312 529T438 486T482 367V20Q482 -2 442 -2H438Q398 -2 398 20V359Q398
405 372 430T296 456Q224 456 170 386V20Q170 -2 130 -2H126Q86 -2 86 20Z" />
<glyph unicode="o" glyph-name="o" horiz-adv-x="569" d="M174 -6T115 62T55 259T115 459T286 529T455 460T514 260T457 62T287 -6ZM211 66T284 66T392 113T427 261T392 409T284 457T177 410T143 262T177 114Z" />
<glyph unicode="p" glyph-name="p" horiz-adv-x="573" d="M170 -186Q170 -208 130 -208H126Q86 -208 86 -186V371Q86 432 81 458Q74 494 74 497Q74 509 93 514T122 520T137 518T144 512T150 503T154 491T157 479T160 466T163 454Q235 529 323 529T463 455T516
265V256Q516 133 460 64T320 -6T170 45V-186ZM291 68H297Q361 69 394 117T428 258T396 403T299 456T170 387V113Q224 68 291 68Z" />
<glyph unicode="q" glyph-name="q" horiz-adv-x="566" d="M398 45Q332 -6 248 -6T108 63T52 256V265Q52 381 104 455T245 529T405 454L421 513Q426 525 448 525H452Q482 525 482 503V-186Q482 -208 442 -208H438Q398 -208 398 -186V45ZM277 68Q344 68 398 113V387Q335
456 270 456Q140 456 140 254Q140 165 173 117T271 68H277Z" />
<glyph unicode="r" glyph-name="r" horiz-adv-x="366" d="M90 20V371Q90 432 85 458Q78 494 78 497Q78 509 97 514T126 520T141 518T148 512T154 503T158 491T161 479T164 466T167 454Q220 529 283 529Q311 529 326 518T341 490T335 455T321 436Q317 436 302 441T265
447T220 432T186 401L174 386V20Q174 -2 134 -2H130Q90 -2 90 20Z" />
<glyph unicode="s" glyph-name="s" horiz-adv-x="413" d="M35 54Q35 64 47 84T70 104Q71 104 86 95T129 76T196 66T261 88T287 149T265 209T175 250T78 298T48 388T94 488T214 529Q265 529 305 516T345 487Q345 474 334 454T313 433Q312 433 300 439Q266 457 224
457T158 440T134 394T151 350T211 321Q305 292 338 258T372 154T323 39T204 -6T85 14T35 54Z" />
<glyph unicode="t" glyph-name="t" horiz-adv-x="342" d="M107 132V451H57Q37 451 37 481V493Q37 523 57 523H107L119 628Q121 650 151 650H161Q191 650 191 628V523H275Q295 523 295 493V481Q295 451 275 451H191V140Q191 66 245 66Q262 66 274 68T288 71Q297
71 303 53T309 24Q309 -6 236 -6Q186 -6 147 24T107 132Z" />
<glyph unicode="u" glyph-name="u" horiz-adv-x="557" d="M75 156V503Q75 525 115 525H119Q159 525 159 503V164Q159 118 185 93T261 67Q333 67 387 137V503Q387 525 427 525H431Q471 525 471 503V148Q471 88 476 61Q483 24 483 22Q483 10 464 5T435 -1T420 1T413
8T407 17T403 30T400 42T397 56T394 69Q327 -6 245 -6T119 37T75 156Z" />
<glyph unicode="v" glyph-name="v" horiz-adv-x="485" d="M21 508Q21 525 64 525H72Q107 525 112 509L246 104L380 509Q385 525 424 525T464 508Q464 503 461 494L300 14Q295 -2 260 -2H225Q190 -2 185 14L24 495Q21 504 21 508Z" />
<glyph unicode="w" glyph-name="w" horiz-adv-x="747" d="M30 508Q30 525 73 525H82Q118 525 122 509L227 110L331 508Q335 525 370 525H381Q415 525 420 508L525 110L629 509Q633 525 674 525T715 508Q715 503 712 494L578 14Q574 -2 538 -2H505Q470 -2 466 14L374
378L280 14Q276 -2 240 -2H207Q171 -2 167 14L33 495Q30 504 30 508Z" />
<glyph unicode="x" glyph-name="x" horiz-adv-x="485" d="M20 15Q20 22 28 33L190 268L40 490Q32 501 32 508Q32 525 78 525H89Q122 525 132 510L246 344L361 511Q370 525 404 525H408Q454 525 454 508Q454 501 446 490L295 270L457 33Q465 22 465 15Q465 -2 419
-2H408Q375 -2 365 13L240 196L113 12Q103 -2 70 -2H66Q20 -2 20 15Z" />
<glyph unicode="y" glyph-name="y" horiz-adv-x="481" d="M18 508Q18 525 61 525H69Q102 525 109 509L245 148L378 509Q383 525 422 525T462 508Q462 503 459 494L202 -187Q194 -208 155 -208H140Q107 -208 107 -192Q107 -189 196 28L21 495Q18 504 18 508Z" />
<glyph unicode="z" glyph-name="z" horiz-adv-x="489" d="M59 0Q53 0 45 18T37 46T40 62L333 451H77Q57 451 57 481V493Q57 523 77 523H428Q435 523 441 505T448 476T446 461L154 72H429Q449 72 449 42V30Q449 0 429 0H59Z" />
<glyph unicode="{" glyph-name="braceleft" horiz-adv-x="274" d="M96 -22V145Q96 200 86 230T48 272T20 308V322Q20 345 48 357T86 399T96 485V652Q96 715 121 741T174 768H224Q244 768 244 739V735Q244 706 224 706H202Q182 706 175 692T168 645V469Q168 369
90 314Q102 308 117 294T150 244T168 161V-14Q168 -46 175 -61T202 -76H224Q244 -76 244 -105V-109Q244 -138 224 -138H174Q146 -138 121 -112T96 -22Z" />
<glyph unicode="|" glyph-name="bar" horiz-adv-x="250" d="M96 -118V748Q96 770 120 770H130Q154 770 154 748V-118Q154 -140 130 -140H120Q96 -140 96 -118Z" />
<glyph unicode="}" glyph-name="braceright" horiz-adv-x="274" d="M50 -76H72Q92 -76 99 -61T106 -14V161Q106 207 123 243T156 294T184 314Q106 369 106 469V645Q106 677 99 691T72 706H50Q30 706 30 735V739Q30 768 50 768H100Q128 768 153 742T178 652V485Q178
429 188 400T226 358T254 322V308Q254 285 226 273T188 230T178 145V-22Q178 -86 153 -112T100 -138H50Q30 -138 30 -109V-105Q30 -76 50 -76Z" />
<glyph unicode="~" glyph-name="asciitilde" horiz-adv-x="547" d="M93 230T86 243T79 263Q79 280 119 297T202 315T300 302T373 289T413 294T442 300T459 291T468 268Q468 250 428 233T344 215T247 228T174 241T134 236T103 230Z" />
<glyph unicode="&#xa0;" glyph-name="nbspace" horiz-adv-x="480" />
<glyph unicode="&#xa1;" glyph-name="exclamdown" horiz-adv-x="294" d="M136 415Q96 415 96 437V503Q96 525 136 525H153Q193 525 193 503V437Q193 415 153 415H136ZM140 321H151Q181 321 181 299V-157Q181 -179 141 -179H121Q82 -179 82 -157L109 299Q111 321 140 321Z" />
<glyph unicode="&#xa2;" glyph-name="cent" horiz-adv-x="486" d="M55 264Q55 335 73 387T122 468Q182 524 269 528V567Q269 583 289 583T309 567V528Q359 526 396 513T434 483Q434 470 423 450T402 429Q401 429 389 434Q349 453 309 456V66Q357 70 400 90Q414
96 416 96Q426 96 438 77T450 45Q450 28 408 12T309 -6V-59Q309 -75 289 -75T269 -59V-5Q161 1 108 65T55 264ZM144 266Q144 168 173 121T269 67V456Q144 444 144 266Z" />
<glyph unicode="&#xa3;" glyph-name="sterling" horiz-adv-x="491" d="M33 30V46Q33 69 76 86Q92 93 105 111T119 159V339H64Q44 339 44 369V381Q44 411 64 411H119V498Q119 706 324 706Q425 706 425 674Q425 665 419 645T403 625Q402 625 381 629T340 634Q268
634 236 603T203 503V411H350Q370 411 370 381V369Q370 339 350 339H203V249Q203 125 164 86Q157 79 146 72H426Q446 72 446 42V30Q446 0 426 0H53Q33 0 33 30Z" />
<glyph unicode="&#xa4;" glyph-name="currency" horiz-adv-x="534" d="M134 153Q124 143 114 143T94 152T85 171T96 193L120 217Q86 262 86 321T120 427L96 450Q86 460 86 470T94 491T113 501T134 489L158 465Q206 500 263 500T367 466L391 490Q401 500 410 500T430
491T441 471T430 450L406 426Q441 380 441 322T406 217L430 193Q441 182 441 173T432 153T412 143T391 154L367 178Q320 145 263 145T159 178L134 153ZM215 206T263 206T345 240T380 322T346 404T263 439T181 405T147 322T181 240Z" />
<glyph unicode="&#xa5;" glyph-name="yen" horiz-adv-x="559" d="M68 191Q48 191 48 221V229Q48 259 68 259H235V355H68Q48 355 48 385V393Q48 423 68 423H191L26 667Q18 678 18 685Q18 702 64 702H75Q108 702 118 687L282 441L450 688Q459 702 500 702T541 685Q541
681 533 667L368 423H492Q512 423 512 393V385Q512 355 492 355H323V259H492Q512 259 512 229V221Q512 191 492 191H323V20Q323 -2 283 -2H275Q235 -2 235 20V191H68Z" />
<glyph unicode="&#xa6;" glyph-name="brokenbar" horiz-adv-x="250" d="M120 403Q96 403 96 425V748Q96 770 120 770H130Q154 770 154 748V425Q154 403 130 403H120ZM96 -118V204Q96 226 120 226H130Q154 226 154 204V-118Q154 -140 130 -140H120Q96 -140 96 -118Z" />
<glyph unicode="&#xa7;" glyph-name="section" horiz-adv-x="429" d="M74 36Q74 49 85 69T106 90Q107 90 118 84Q153 66 195 66T258 83T279 125T262 165T220 188T165 207T110 233T67 280T50 359Q50 428 103 474Q65 509 65 572T112 670T217 706T316 693T356 664Q356
651 345 631T324 610Q323 610 312 616Q277 634 235 634T172 618T151 574T174 530T231 504T298 481T355 433T379 343Q379 270 324 227Q364 194 364 130T318 30T213 -6T114 7T74 36ZM294 343Q294 371 278 390T243 417T191 435Q135 419 135 359Q135 315 167 296Q192
280 238 266Q294 279 294 343Z" />
<glyph unicode="&#xa8;" glyph-name="dieresis" horiz-adv-x="320" d="M231 607Q191 607 191 629V680Q191 702 231 702H235Q275 702 275 680V629Q275 607 235 607H231ZM87 607Q47 607 47 629V680Q47 702 87 702H91Q131 702 131 680V629Q131 607 91 607H87Z" />
<glyph unicode="&#xa9;" glyph-name="copyright" horiz-adv-x="739" d="M10 205T10 354T114 606T369 710T624 607T729 354T624 100T369 -5T115 100ZM240 662T149 573T58 355T149 135T369 43T589 134T681 354T590 572T369 662ZM193 349Q193 562 387 562Q430 562
465 550T501 525Q501 517 494 504T480 490Q479 490 468 497Q435 517 388 517Q316 517 282 477T247 350T281 223T385 182Q434 182 473 204Q486 212 488 212Q494 212 501 199T509 180Q509 167 472 152T385 137Q287 137 240 189T193 349Z" />
<glyph unicode="&#xaa;" glyph-name="ordfeminine" horiz-adv-x="319" d="M251 517Q251 485 257 455Q257 444 230 444Q218 444 213 479Q179 441 136 441T69 460T45 509T55 556T80 583T120 597Q159 605 210 605V629Q210 670 155 670Q119 670 99 660T78 650Q73 650
67 659T60 674Q60 684 89 695T158 706T225 686T251 628V517ZM90 518Q90 478 131 478T210 511V570Q120 570 100 548Q90 536 90 518Z" />
<glyph unicode="&#xab;" glyph-name="guillemotleft" horiz-adv-x="471" d="M216 246T216 258T229 286L359 442Q370 454 380 454T403 444T416 424T408 402L297 258L408 113Q416 102 416 93T404 73T381 61T359 74L229 230Q216 246 216 258ZM44 246T44 258T57 286L187
442Q198 454 208 454T231 444T244 424T236 402L125 258L236 113Q244 102 244 93T232 73T209 61T187 74L57 230Q44 246 44 258Z" />
<glyph unicode="&#xac;" glyph-name="logicalnot" horiz-adv-x="560" d="M58 265Q38 265 38 295V308Q38 338 58 338H492Q522 338 522 308V99Q522 77 492 77H479Q449 77 449 99V265H58Z" />
<glyph unicode="&#xad;" glyph-name="uni00AD" horiz-adv-x="320" d="M64 230Q44 230 44 260V270Q44 300 64 300H253Q273 300 273 270V260Q273 230 253 230H64Z" />
<glyph unicode="&#xae;" glyph-name="registered" horiz-adv-x="739" d="M10 205T10 354T114 606T369 710T624 607T729 354T624 100T369 -5T115 100ZM240 662T149 573T58 355T149 135T369 43T589 134T681 354T590 572T369 662ZM249 158V541Q249 559 267 559H366Q508
559 508 455Q508 382 440 355V353Q457 347 468 330T493 279L539 163Q541 155 541 154Q541 145 516 145H510Q491 145 487 154L442 270Q429 304 410 316T354 328H301V158Q301 145 277 145H273Q249 145 249 158ZM301 373H379Q410 373 432 394T454 445Q454 514 375
514H301V373Z" />
<glyph unicode="&#xaf;" glyph-name="overscore" horiz-adv-x="320" d="M47 612Q27 612 27 642V652Q27 682 47 682H270Q290 682 290 652V642Q290 612 270 612H47Z" />
<glyph unicode="&#xb0;" glyph-name="degree" horiz-adv-x="345" d="M225 441T170 441T77 479T38 573T76 667T170 706T264 667T303 573T264 480ZM87 537T111 512T170 486T229 511T254 573T229 635T170 661T112 635T87 573Z" />
<glyph unicode="&#xb1;" glyph-name="plusminus" horiz-adv-x="560" d="M247 159V327H78Q48 327 48 357V364Q48 394 78 394H247V563Q247 593 277 593H284Q314 593 314 563V394H482Q512 394 512 364V357Q512 327 482 327H314V159Q314 129 284 129H277Q247 129 247
159ZM38 30V43Q38 73 68 73H492Q522 73 522 43V30Q522 0 492 0H68Q38 0 38 30Z" />
<glyph unicode="&#xb2;" glyph-name="twosuperior" horiz-adv-x="320" d="M47 298Q35 298 35 323Q35 329 37 333Q193 528 209 553T225 605T206 647T159 663T111 656T81 641T67 634T56 645T48 663Q48 680 84 692T152 705Q209 705 242 679T275 611T254 534T143 390L101
339H267Q278 339 278 322V315Q278 298 267 298H47Z" />
<glyph unicode="&#xb3;" glyph-name="threesuperior" horiz-adv-x="320" d="M43 326Q43 334 50 344T63 355Q64 355 94 345T155 335T212 353T238 414T216 474T151 491H133Q121 491 121 509V515Q121 533 133 533H149Q189 533 207 557T226 605T211 646T165 664T116
659T87 650T73 645T62 656T55 675Q55 687 91 696T158 706Q212 706 244 680T276 601T216 524V520Q245 512 267 485T289 414Q289 353 250 323T161 293T78 304T43 326Z" />
<glyph unicode="&#xb4;" glyph-name="acute" horiz-adv-x="320" d="M242 732T233 720T193 674T148 623T103 605T74 615T132 726Q147 752 194 752T242 739Q242 732 233 720Z" />
<glyph unicode="&#xb5;" glyph-name="mu" horiz-adv-x="566" d="M169 -186Q169 -208 129 -208H125Q85 -208 85 -186V503Q85 525 125 525H129Q169 525 169 503V164Q169 118 195 93T271 67Q343 67 397 137V503Q397 525 437 525H441Q481 525 481 503V148Q481 88 486
61Q493 24 493 22Q493 10 474 5T445 -1T430 1T423 8T417 17T413 30T410 42T407 56T404 69Q337 -6 248 -6Q206 -6 169 9V-186Z" />
<glyph unicode="&#xb6;" glyph-name="paragraph" horiz-adv-x="515" d="M243 -151V247Q158 257 100 321T41 476T107 633T268 700H481Q501 700 501 676V662Q501 638 481 638H445V-151Q445 -173 421 -173H407Q383 -173 383 -151V638H305V-151Q305 -173 281 -173H267Q243
-173 243 -151Z" />
<glyph unicode="&#xb7;" glyph-name="middot" horiz-adv-x="267" d="M163 309T141 309T105 323T90 360T104 397T141 412T178 397T193 360T178 324Z" />
<glyph unicode="&#xb8;" glyph-name="cedilla" horiz-adv-x="320" d="M190 -49Q206 -49 222 -52T257 -73T275 -121Q275 -210 160 -210Q121 -210 83 -198T45 -167Q45 -141 64 -141Q69 -141 97 -151T147 -161Q204 -161 204 -126Q204 -107 188 -98T155 -84T138 -68Q138
-66 140 -56L157 0H200L186 -49H190Z" />
<glyph unicode="&#xb9;" glyph-name="onesuperior" horiz-adv-x="217" d="M148 297Q127 297 127 311V649L53 633Q41 633 41 663Q41 671 51 674L157 702Q175 702 175 690V311Q175 297 153 297H148Z" />
<glyph unicode="&#xba;" glyph-name="ordmasculine" horiz-adv-x="337" d="M282 508T254 475T170 441T85 474T55 572T85 671T169 706T253 672T282 573ZM98 477T168 477T239 573T169 670T98 574Z" />
<glyph unicode="&#xbb;" glyph-name="guillemotright" horiz-adv-x="471" d="M250 61T238 72T226 93T234 113L345 258L234 402Q226 413 226 423T238 444T261 454T283 442L413 286Q426 270 426 258T413 230L283 74Q272 61 261 61ZM100 61T89 61T66 72T54 93T62
113L173 258L62 402Q54 413 54 423T66 444T89 454T111 442L241 286Q254 270 254 258T241 230L111 74Q100 61 89 61Z" />
<glyph unicode="&#xbc;" glyph-name="onequarter" horiz-adv-x="671" d="M104 -2Q90 -2 90 4T94 15L500 686Q510 703 530 703H543Q557 703 557 696Q557 694 553 686L147 15Q137 -2 117 -2H104ZM148 297Q127 297 127 311V649L53 633Q41 633 41 663Q41 671 51 674L157
702Q175 702 175 690V311Q175 297 153 297H148ZM351 87T346 97T341 115T342 124L532 396Q538 404 552 404H561Q578 404 578 391V129H617Q628 129 628 112V105Q628 87 617 87H578V11Q578 -2 561 -2H548Q530 -2 530 11V87H355Q351 87 346 97ZM530 129V260L532 322L529
324L398 129H530Z" />
<glyph unicode="&#xbd;" glyph-name="onehalf" horiz-adv-x="746" d="M104 -2Q90 -2 90 4T94 15L500 686Q510 703 530 703H543Q557 703 557 696Q557 694 553 686L147 15Q137 -2 117 -2H104ZM148 297Q127 297 127 311V649L53 633Q41 633 41 663Q41 671 51 674L157
702Q175 702 175 690V311Q175 297 153 297H148ZM446 25Q446 31 448 35Q604 230 620 255T636 306T617 349T570 365T522 358T492 343T478 336T467 347T459 365Q459 382 495 394T563 407Q620 407 653 381T686 313T665 236T554 92L512 41H678Q689 41 689 24V17Q689
0 678 0H458Q446 0 446 25Z" />
<glyph unicode="&#xbe;" glyph-name="threequarters" horiz-adv-x="738" d="M39 326Q39 334 46 344T59 355Q60 355 90 345T151 335T208 353T234 414T212 474T147 491H129Q117 491 117 509V515Q117 533 129 533H145Q185 533 203 557T222 605T207 646T161 664T112
659T83 650T69 645T58 656T51 675Q51 687 87 696T154 706Q208 706 240 680T272 601T212 524V520Q241 512 263 485T285 414Q285 353 246 323T157 293T74 304T39 326ZM169 -2Q155 -2 155 4T159 15L565 686Q575 703 595 703H608Q622 703 622 696Q622 694 618 686L212
15Q202 -2 182 -2H169ZM420 87T415 97T410 115T411 124L601 396Q607 404 621 404H630Q647 404 647 391V129H686Q697 129 697 112V105Q697 87 686 87H647V11Q647 -2 630 -2H617Q599 -2 599 11V87H424Q420 87 415 97ZM599 129V260L601 322L598 324L467 129H599Z"
/>
<glyph unicode="&#xbf;" glyph-name="questiondown" horiz-adv-x="425" d="M253 415Q213 415 213 437V503Q213 525 253 525H270Q310 525 310 503V437Q310 415 270 415H253ZM84 122Q112 150 140 178Q210 245 217 301Q220 321 250 321H265Q295 321 295 298Q295 225
209 139Q175 105 160 89T130 45T114 -5Q114 -109 240 -109Q278 -109 320 -92T364 -75Q371 -75 383 -95T396 -126Q396 -150 340 -166T224 -183Q128 -183 74 -135T19 -16T84 122Z" />
<glyph unicode="&#xc0;" glyph-name="Agrave" horiz-adv-x="613" d="M12 15Q12 20 15 29L252 686Q257 702 292 702H321Q356 702 361 686L598 28Q601 21 601 15Q601 -2 558 -2H550Q515 -2 510 14L451 178H157L100 14Q95 -2 60 -2H55Q12 -2 12 15ZM185 254H424L319
552L306 610L290 552L185 254ZM374 805T374 795T345 785T300 803Q212 904 209 909T206 919Q206 932 253 932T316 906Q374 805 374 795Z" />
<glyph unicode="&#xc1;" glyph-name="Aacute" horiz-adv-x="613" d="M12 15Q12 20 15 29L252 686Q257 702 292 702H321Q356 702 361 686L598 28Q601 21 601 15Q601 -2 558 -2H550Q515 -2 510 14L451 178H157L100 14Q95 -2 60 -2H55Q12 -2 12 15ZM185 254H424L319
552L306 610L290 552L185 254ZM419 912T410 900T370 854T324 803T280 785T251 795T309 906Q324 932 371 932T419 919Q419 912 410 900Z" />
<glyph unicode="&#xc2;" glyph-name="Acircumflex" horiz-adv-x="613" d="M12 15Q12 20 15 29L252 686Q257 702 292 702H321Q356 702 361 686L598 28Q601 21 601 15Q601 -2 558 -2H550Q515 -2 510 14L451 178H157L100 14Q95 -2 60 -2H55Q12 -2 12 15ZM185 254H424L319
552L306 610L290 552L185 254ZM245 777Q231 764 209 764T186 778Q186 786 192 796L248 884Q263 906 294 906H319Q350 906 365 884L422 796Q428 787 428 779Q428 764 406 764T369 777L306 851L245 777Z" />
<glyph unicode="&#xc3;" glyph-name="Atilde" horiz-adv-x="613" d="M12 15Q12 20 15 29L252 686Q257 702 292 702H321Q356 702 361 686L598 28Q601 21 601 15Q601 -2 558 -2H550Q515 -2 510 14L451 178H157L100 14Q95 -2 60 -2H55Q12 -2 12 15ZM185 254H424L319
552L306 610L290 552L185 254ZM330 795T289 805T235 815T205 809T177 802T157 812T148 832Q148 851 182 869T250 888T324 878T381 868T412 874T437 881T456 870T466 851Q466 832 432 814T364 795Z" />
<glyph unicode="&#xc4;" glyph-name="Adieresis" horiz-adv-x="613" d="M12 15Q12 20 15 29L252 686Q257 702 292 702H321Q356 702 361 686L598 28Q601 21 601 15Q601 -2 558 -2H550Q515 -2 510 14L451 178H157L100 14Q95 -2 60 -2H55Q12 -2 12 15ZM185 254H424L319
552L306 610L290 552L185 254ZM377 787Q337 787 337 809V860Q337 882 377 882H381Q421 882 421 860V809Q421 787 381 787H377ZM233 787Q193 787 193 809V860Q193 882 233 882H237Q277 882 277 860V809Q277 787 237 787H233Z" />
<glyph unicode="&#xc5;" glyph-name="Aring" horiz-adv-x="613" d="M12 15Q12 20 15 29L252 686Q257 702 292 702H321Q356 702 361 686L598 28Q601 21 601 15Q601 -2 558 -2H550Q515 -2 510 14L451 178H157L100 14Q95 -2 60 -2H55Q12 -2 12 15ZM185 254H424L319
552L306 610L290 552L185 254ZM342 744T307 744T248 768T223 828T247 888T307 913T367 888T392 828T367 769ZM286 779T307 779T342 793T357 828T343 863T307 878T272 864T258 828T272 793Z" />
<glyph unicode="&#xc6;" glyph-name="AE" horiz-adv-x="915" d="M-11 15Q-11 23 -7 31L314 673Q327 700 357 700H802Q822 700 822 670V654Q822 624 802 624H440L490 396H772Q792 396 792 366V350Q792 320 772 320H506L559 76H803Q823 76 823 46V30Q823 0 803 0H516Q486
0 480 29L448 178H153L73 14Q64 -2 33 -2H28Q-11 -2 -11 15ZM192 253H431L367 552L363 610L340 552L192 253Z" />
<glyph unicode="&#xc7;" glyph-name="Ccedilla" horiz-adv-x="619" d="M57 350Q57 706 381 706Q453 706 512 686T572 644Q572 630 560 608T538 586Q536 586 517 597T461 619T383 630Q262 630 205 563T148 351T204 138T379 70Q424 70 464 82T526 107T551 120Q560
120 573 98T586 66Q586 43 524 19T379 -6H369L357 -49H361Q377 -49 393 -52T428 -73T446 -121Q446 -210 331 -210Q292 -210 254 -198T216 -167Q216 -141 235 -141Q240 -141 268 -151T318 -161Q375 -161 375 -126Q375 -107 359 -98T326 -84T309 -68Q309 -66 311
-56L327 -3Q189 9 123 95T57 350Z" />
<glyph unicode="&#xc8;" glyph-name="Egrave" horiz-adv-x="546" d="M97 30V670Q97 700 127 700H476Q496 700 496 670V654Q496 624 476 624H185V396H446Q466 396 466 366V350Q466 320 446 320H185V76H477Q497 76 497 46V30Q497 0 477 0H127Q97 0 97 30ZM365 805T365
795T337 785T291 803Q203 904 200 909T197 919Q197 932 244 932T307 906Q365 805 365 795Z" />
<glyph unicode="&#xc9;" glyph-name="Eacute" horiz-adv-x="546" d="M97 30V670Q97 700 127 700H476Q496 700 496 670V654Q496 624 476 624H185V396H446Q466 396 466 366V350Q466 320 446 320H185V76H477Q497 76 497 46V30Q497 0 477 0H127Q97 0 97 30ZM410 912T401
900T361 854T316 803T271 785T242 795T300 906Q315 932 362 932T410 919Q410 912 401 900Z" />
<glyph unicode="&#xca;" glyph-name="Ecircumflex" horiz-adv-x="546" d="M97 30V670Q97 700 127 700H476Q496 700 496 670V654Q496 624 476 624H185V396H446Q466 396 466 366V350Q466 320 446 320H185V76H477Q497 76 497 46V30Q497 0 477 0H127Q97 0 97 30ZM236
777Q222 764 200 764T177 778Q177 786 183 796L239 884Q254 906 285 906H310Q341 906 356 884L413 796Q419 787 419 779Q419 764 397 764T360 777L297 851L236 777Z" />
<glyph unicode="&#xcb;" glyph-name="Edieresis" horiz-adv-x="546" d="M97 30V670Q97 700 127 700H476Q496 700 496 670V654Q496 624 476 624H185V396H446Q466 396 466 366V350Q466 320 446 320H185V76H477Q497 76 497 46V30Q497 0 477 0H127Q97 0 97 30ZM368
787Q328 787 328 809V860Q328 882 368 882H372Q412 882 412 860V809Q412 787 372 787H368ZM224 787Q184 787 184 809V860Q184 882 224 882H228Q268 882 268 860V809Q268 787 228 787H224Z" />
<glyph unicode="&#xcc;" glyph-name="Igrave" horiz-adv-x="282" d="M97 20V680Q97 702 137 702H145Q185 702 185 680V20Q185 -2 145 -2H137Q97 -2 97 20ZM208 805T208 795T179 785T134 803Q46 904 43 909T40 919Q40 932 87 932T150 906Q208 805 208 795Z" />
<glyph unicode="&#xcd;" glyph-name="Iacute" horiz-adv-x="282" d="M97 20V680Q97 702 137 702H145Q185 702 185 680V20Q185 -2 145 -2H137Q97 -2 97 20ZM253 912T244 900T204 854T159 803T114 785T85 795T143 906Q158 932 205 932T253 919Q253 912 244 900Z" />
<glyph unicode="&#xce;" glyph-name="Icircumflex" horiz-adv-x="282" d="M97 20V680Q97 702 137 702H145Q185 702 185 680V20Q185 -2 145 -2H137Q97 -2 97 20ZM79 777Q65 764 43 764T20 778Q20 786 26 796L82 884Q97 906 128 906H153Q184 906 199 884L256 796Q262
787 262 779Q262 764 240 764T203 777L140 851L79 777Z" />
<glyph unicode="&#xcf;" glyph-name="Idieresis" horiz-adv-x="282" d="M97 20V680Q97 702 137 702H145Q185 702 185 680V20Q185 -2 145 -2H137Q97 -2 97 20ZM211 787Q171 787 171 809V860Q171 882 211 882H215Q255 882 255 860V809Q255 787 215 787H211ZM67 787Q27
787 27 809V860Q27 882 67 882H71Q111 882 111 860V809Q111 787 71 787H67Z" />
<glyph unicode="&#xd0;" glyph-name="Eth" horiz-adv-x="696" d="M85 30V320H20Q0 320 0 350V366Q0 396 20 396H85V670Q85 700 115 700H330Q464 700 550 622Q641 539 641 350Q641 83 452 18Q397 0 330 0H115Q85 0 85 30ZM173 76H323Q425 76 487 142T550 349T488
557T323 624H173V396H283Q303 396 303 366V350Q303 320 283 320H173V76Z" />
<glyph unicode="&#xd1;" glyph-name="Ntilde" horiz-adv-x="719" d="M90 20V680Q90 702 130 702H151Q179 702 193 683L512 201L542 145V680Q542 702 582 702H589Q629 702 629 680V20Q629 -2 589 -2H569Q543 -2 534 12L204 510L177 561V20Q177 -2 137 -2H130Q90
-2 90 20ZM382 795T341 805T287 815T257 809T229 802T209 812T200 832Q200 851 234 869T302 888T376 878T433 868T464 874T489 881T508 870T518 851Q518 832 484 814T416 795Z" />
<glyph unicode="&#xd2;" glyph-name="Ograve" horiz-adv-x="731" d="M57 177T57 352T135 616T365 706T595 617T674 352T595 86T366 -6T136 85ZM259 70T365 70T527 142T583 351T527 559T365 630T204 560T148 352T203 142ZM432 805T432 795T403 785T358 803Q270
904 267 909T264 919Q264 932 311 932T374 906Q432 805 432 795Z" />
<glyph unicode="&#xd3;" glyph-name="Oacute" horiz-adv-x="731" d="M57 177T57 352T135 616T365 706T595 617T674 352T595 86T366 -6T136 85ZM259 70T365 70T527 142T583 351T527 559T365 630T204 560T148 352T203 142ZM477 912T468 900T428 854T382 803T338
785T309 795T367 906Q382 932 429 932T477 919Q477 912 468 900Z" />
<glyph unicode="&#xd4;" glyph-name="Ocircumflex" horiz-adv-x="731" d="M57 177T57 352T135 616T365 706T595 617T674 352T595 86T366 -6T136 85ZM259 70T365 70T527 142T583 351T527 559T365 630T204 560T148 352T203 142ZM303 777Q289 764 267 764T244 778Q244
786 250 796L306 884Q321 906 352 906H377Q408 906 423 884L480 796Q486 787 486 779Q486 764 464 764T427 777L364 851L303 777Z" />
<glyph unicode="&#xd5;" glyph-name="Otilde" horiz-adv-x="731" d="M57 177T57 352T135 616T365 706T595 617T674 352T595 86T366 -6T136 85ZM259 70T365 70T527 142T583 351T527 559T365 630T204 560T148 352T203 142ZM388 795T347 805T293 815T263 809T235
802T215 812T206 832Q206 851 240 869T308 888T382 878T439 868T470 874T495 881T514 870T524 851Q524 832 490 814T422 795Z" />
<glyph unicode="&#xd6;" glyph-name="Odieresis" horiz-adv-x="731" d="M57 177T57 352T135 616T365 706T595 617T674 352T595 86T366 -6T136 85ZM259 70T365 70T527 142T583 351T527 559T365 630T204 560T148 352T203 142ZM435 787Q395 787 395 809V860Q395 882
435 882H439Q479 882 479 860V809Q479 787 439 787H435ZM291 787Q251 787 251 809V860Q251 882 291 882H295Q335 882 335 860V809Q335 787 295 787H291Z" />
<glyph unicode="&#xd7;" glyph-name="multiply" horiz-adv-x="560" d="M54 36T54 42T62 56L233 228L62 399Q54 407 54 413T62 427L81 447Q88 454 95 454T109 447L280 275L451 447Q458 454 465 454T479 447L498 427Q505 420 505 413T498 399L327 228L498 56Q505
49 505 42T498 28L479 8Q471 0 465 0T451 8L280 181L109 8Q101 0 95 0T81 8L62 28Q54 36 54 42Z" />
<glyph unicode="&#xd8;" glyph-name="Oslash" horiz-adv-x="731" d="M49 1T42 8T34 21T40 36L113 116Q57 205 57 352Q57 527 135 616T356 706T578 633L633 694Q640 702 647 702T661 695T669 682T663 668L605 604Q674 514 674 346T595 86T366 -6T137 84L70 10Q62
1 56 1ZM519 568Q465 630 362 630T204 560T148 352Q148 254 177 187L519 568ZM197 151Q251 70 361 70T527 142T583 340T543 536L197 151Z" />
<glyph unicode="&#xd9;" glyph-name="Ugrave" horiz-adv-x="712" d="M83 224V680Q83 702 123 702H131Q171 702 171 680V221Q171 155 223 113T356 70T488 112T541 221V680Q541 702 581 702H589Q629 702 629 680V224Q629 115 558 55T356 -6T154 54T83 224ZM423 805T423
795T395 785T349 803Q261 904 258 909T255 919Q255 932 302 932T365 906Q423 805 423 795Z" />
<glyph unicode="&#xda;" glyph-name="Uacute" horiz-adv-x="712" d="M83 224V680Q83 702 123 702H131Q171 702 171 680V221Q171 155 223 113T356 70T488 112T541 221V680Q541 702 581 702H589Q629 702 629 680V224Q629 115 558 55T356 -6T154 54T83 224ZM468 912T459
900T419 854T374 803T329 785T300 795T358 906Q373 932 420 932T468 919Q468 912 459 900Z" />
<glyph unicode="&#xdb;" glyph-name="Ucircumflex" horiz-adv-x="712" d="M83 224V680Q83 702 123 702H131Q171 702 171 680V221Q171 155 223 113T356 70T488 112T541 221V680Q541 702 581 702H589Q629 702 629 680V224Q629 115 558 55T356 -6T154 54T83 224ZM294
777Q280 764 258 764T235 778Q235 786 241 796L297 884Q312 906 343 906H368Q399 906 414 884L471 796Q477 787 477 779Q477 764 455 764T418 777L355 851L294 777Z" />
<glyph unicode="&#xdc;" glyph-name="Udieresis" horiz-adv-x="712" d="M83 224V680Q83 702 123 702H131Q171 702 171 680V221Q171 155 223 113T356 70T488 112T541 221V680Q541 702 581 702H589Q629 702 629 680V224Q629 115 558 55T356 -6T154 54T83 224ZM426
787Q386 787 386 809V860Q386 882 426 882H430Q470 882 470 860V809Q470 787 430 787H426ZM282 787Q242 787 242 809V860Q242 882 282 882H286Q326 882 326 860V809Q326 787 286 787H282Z" />
<glyph unicode="&#xdd;" glyph-name="Yacute" horiz-adv-x="559" d="M235 20V359L26 667Q18 678 18 685Q18 702 64 702H75Q108 702 118 687L282 441L450 688Q459 702 500 702T541 685Q541 681 533 667L323 356V20Q323 -2 283 -2H275Q235 -2 235 20ZM391 912T382
900T342 854T296 803T252 785T223 795T281 906Q296 932 343 932T391 919Q391 912 382 900Z" />
<glyph unicode="&#xde;" glyph-name="Thorn" horiz-adv-x="567" d="M85 20V680Q85 702 125 702H133Q173 702 173 680V578H318Q395 578 460 544Q497 525 519 484T541 386T524 291T482 230T425 196Q376 176 328 176H173V20Q173 -2 133 -2H125Q85 -2 85 20ZM173 252H329Q367
252 404 276Q424 289 437 316T450 382Q450 449 410 475T315 502H173V252Z" />
<glyph unicode="&#xdf;" glyph-name="germandbls" horiz-adv-x="554" d="M90 20V521Q90 603 144 654T287 706T431 666T485 536Q485 491 457 448T383 385Q445 371 479 322T514 206Q514 109 453 55T299 0H267Q247 0 247 30V42Q247 72 267 72H300Q354 72 390 108T426
205T390 303T300 340H267Q247 340 247 370V382Q247 412 267 412H277Q324 412 360 446T396 528Q396 634 285 634Q234 634 204 604T174 521V20Q174 -2 134 -2H130Q90 -2 90 20Z" />
<glyph unicode="&#xe0;" glyph-name="agrave" horiz-adv-x="545" d="M381 326V373Q381 457 271 457Q199 457 138 426Q117 415 115 415Q105 415 93 435T80 465Q80 486 138 507T279 529T413 488T465 372V148Q465 88 470 61Q477 24 477 22Q477 10 458 5T429 -1T414
1T407 8T401 17T397 30T394 42T391 56T388 69Q320 -6 220 -6Q143 -6 96 32T49 149T103 267T226 315T381 326ZM139 149Q139 67 224 67Q273 67 308 85T381 136V254Q256 254 220 240Q201 233 180 222Q139 201 139 149ZM335 625T335 615T307 605T261 623Q173 724 170
729T167 739Q167 752 214 752T277 726Q335 625 335 615Z" />
<glyph unicode="&#xe1;" glyph-name="aacute" horiz-adv-x="545" d="M381 326V373Q381 457 271 457Q199 457 138 426Q117 415 115 415Q105 415 93 435T80 465Q80 486 138 507T279 529T413 488T465 372V148Q465 88 470 61Q477 24 477 22Q477 10 458 5T429 -1T414
1T407 8T401 17T397 30T394 42T391 56T388 69Q320 -6 220 -6Q143 -6 96 32T49 149T103 267T226 315T381 326ZM139 149Q139 67 224 67Q273 67 308 85T381 136V254Q256 254 220 240Q201 233 180 222Q139 201 139 149ZM380 732T371 720T331 674T286 623T241 605T212
615T270 726Q285 752 332 752T380 739Q380 732 371 720Z" />
<glyph unicode="&#xe2;" glyph-name="acircumflex" horiz-adv-x="545" d="M381 326V373Q381 457 271 457Q199 457 138 426Q117 415 115 415Q105 415 93 435T80 465Q80 486 138 507T279 529T413 488T465 372V148Q465 88 470 61Q477 24 477 22Q477 10 458 5T429
-1T414 1T407 8T401 17T397 30T394 42T391 56T388 69Q320 -6 220 -6Q143 -6 96 32T49 149T103 267T226 315T381 326ZM139 149Q139 67 224 67Q273 67 308 85T381 136V254Q256 254 220 240Q201 233 180 222Q139 201 139 149ZM206 597Q192 584 170 584T147 598Q147
606 153 616L209 704Q224 726 255 726H280Q311 726 326 704L383 616Q389 607 389 599Q389 584 367 584T330 597L267 671L206 597Z" />
<glyph unicode="&#xe3;" glyph-name="atilde" horiz-adv-x="545" d="M381 326V373Q381 457 271 457Q199 457 138 426Q117 415 115 415Q105 415 93 435T80 465Q80 486 138 507T279 529T413 488T465 372V148Q465 88 470 61Q477 24 477 22Q477 10 458 5T429 -1T414
1T407 8T401 17T397 30T394 42T391 56T388 69Q320 -6 220 -6Q143 -6 96 32T49 149T103 267T226 315T381 326ZM139 149Q139 67 224 67Q273 67 308 85T381 136V254Q256 254 220 240Q201 233 180 222Q139 201 139 149ZM291 615T250 625T196 635T166 629T138 622T118
632T109 652Q109 671 143 689T211 708T285 698T342 688T373 694T398 701T417 690T427 671Q427 652 393 634T325 615Z" />
<glyph unicode="&#xe4;" glyph-name="adieresis" horiz-adv-x="545" d="M381 326V373Q381 457 271 457Q199 457 138 426Q117 415 115 415Q105 415 93 435T80 465Q80 486 138 507T279 529T413 488T465 372V148Q465 88 470 61Q477 24 477 22Q477 10 458 5T429 -1T414
1T407 8T401 17T397 30T394 42T391 56T388 69Q320 -6 220 -6Q143 -6 96 32T49 149T103 267T226 315T381 326ZM139 149Q139 67 224 67Q273 67 308 85T381 136V254Q256 254 220 240Q201 233 180 222Q139 201 139 149ZM338 607Q298 607 298 629V680Q298 702 338 702H342Q382
702 382 680V629Q382 607 342 607H338ZM194 607Q154 607 154 629V680Q154 702 194 702H198Q238 702 238 680V629Q238 607 198 607H194Z" />
<glyph unicode="&#xe5;" glyph-name="aring" horiz-adv-x="545" d="M381 326V373Q381 457 271 457Q199 457 138 426Q117 415 115 415Q105 415 93 435T80 465Q80 486 138 507T279 529T413 488T465 372V148Q465 88 470 61Q477 24 477 22Q477 10 458 5T429 -1T414
1T407 8T401 17T397 30T394 42T391 56T388 69Q320 -6 220 -6Q143 -6 96 32T49 149T103 267T226 315T381 326ZM139 149Q139 67 224 67Q273 67 308 85T381 136V254Q256 254 220 240Q201 233 180 222Q139 201 139 149ZM303 564T268 564T209 588T184 648T208 708T268
733T328 708T353 648T328 589ZM247 599T268 599T303 613T318 648T304 683T268 698T233 684T219 648T233 613Z" />
<glyph unicode="&#xe6;" glyph-name="ae" horiz-adv-x="829" d="M45 144Q45 185 62 215T106 263T174 292Q241 310 338 312Q344 374 366 416Q340 457 267 457Q195 457 134 426Q113 415 111 415Q101 415 89 435T76 465Q76 486 134 507T264 529Q363 529 416 481Q473
529 571 529T722 466T774 282Q774 273 762 257T741 241H425Q431 150 468 108T579 66Q647 66 704 98Q723 108 725 108Q735 108 747 88T760 58Q760 38 706 16T580 -6Q457 -6 397 57Q321 -6 216 -6Q139 -6 92 32T45 144ZM685 313Q685 457 565 457Q436 457 425 313H685ZM135
149Q135 67 220 67Q293 67 358 119Q336 170 335 240Q188 237 152 196Q135 177 135 149Z" />
<glyph unicode="&#xe7;" glyph-name="ccedilla" horiz-adv-x="485" d="M52 264Q52 339 72 393T128 476Q194 529 289 529Q347 529 393 515T439 483Q439 470 428 450T407 429Q406 429 404 430T400 431T396 433Q342 457 287 457Q142 457 142 266Q142 160 177 113T297
66Q358 66 410 92Q413 93 416 94T421 96Q431 96 443 77T455 45Q455 27 408 11T298 -6H294L282 -49H286Q302 -49 318 -52T353 -73T371 -121Q371 -210 256 -210Q217 -210 179 -198T141 -167Q141 -141 160 -141Q165 -141 193 -151T243 -161Q300 -161 300 -126Q300
-107 284 -98T251 -84T234 -68Q234 -66 236 -56L252 -3Q151 7 102 71T52 264Z" />
<glyph unicode="&#xe8;" glyph-name="egrave" horiz-adv-x="539" d="M175 -6T115 59T55 257T114 460T282 529Q494 529 494 268Q494 259 482 243T461 227H145Q151 144 188 105T299 66Q367 66 424 98Q443 108 445 108Q455 108 467 88T480 58Q480 38 426 16T300 -6Q175
-6 115 59ZM405 299Q405 457 285 457Q156 457 145 299H405ZM352 625T352 615T323 605T278 623Q190 724 187 729T184 739Q184 752 231 752T294 726Q352 625 352 615Z" />
<glyph unicode="&#xe9;" glyph-name="eacute" horiz-adv-x="539" d="M175 -6T115 59T55 257T114 460T282 529Q494 529 494 268Q494 259 482 243T461 227H145Q151 144 188 105T299 66Q367 66 424 98Q443 108 445 108Q455 108 467 88T480 58Q480 38 426 16T300 -6Q175
-6 115 59ZM405 299Q405 457 285 457Q156 457 145 299H405ZM397 732T388 720T348 674T302 623T258 605T229 615T287 726Q302 752 349 752T397 739Q397 732 388 720Z" />
<glyph unicode="&#xea;" glyph-name="ecircumflex" horiz-adv-x="539" d="M175 -6T115 59T55 257T114 460T282 529Q494 529 494 268Q494 259 482 243T461 227H145Q151 144 188 105T299 66Q367 66 424 98Q443 108 445 108Q455 108 467 88T480 58Q480 38 426 16T300
-6Q175 -6 115 59ZM405 299Q405 457 285 457Q156 457 145 299H405ZM223 597Q209 584 187 584T164 598Q164 606 170 616L226 704Q241 726 272 726H297Q328 726 343 704L400 616Q406 607 406 599Q406 584 384 584T347 597L284 671L223 597Z" />
<glyph unicode="&#xeb;" glyph-name="edieresis" horiz-adv-x="539" d="M175 -6T115 59T55 257T114 460T282 529Q494 529 494 268Q494 259 482 243T461 227H145Q151 144 188 105T299 66Q367 66 424 98Q443 108 445 108Q455 108 467 88T480 58Q480 38 426 16T300
-6Q175 -6 115 59ZM405 299Q405 457 285 457Q156 457 145 299H405ZM355 607Q315 607 315 629V680Q315 702 355 702H359Q399 702 399 680V629Q399 607 359 607H355ZM211 607Q171 607 171 629V680Q171 702 211 702H215Q255 702 255 680V629Q255 607 215 607H211Z"
/>
<glyph unicode="&#xec;" glyph-name="igrave" horiz-adv-x="265" d="M91 20V503Q91 525 131 525H135Q175 525 175 503V20Q175 -2 135 -2H131Q91 -2 91 20ZM201 625T201 615T173 605T127 623Q39 724 36 729T33 739Q33 752 80 752T143 726Q201 625 201 615Z" />
<glyph unicode="&#xed;" glyph-name="iacute" horiz-adv-x="265" d="M91 20V503Q91 525 131 525H135Q175 525 175 503V20Q175 -2 135 -2H131Q91 -2 91 20ZM246 732T237 720T197 674T152 623T107 605T78 615T136 726Q151 752 198 752T246 739Q246 732 237 720Z" />
<glyph unicode="&#xee;" glyph-name="icircumflex" horiz-adv-x="265" d="M91 20V503Q91 525 131 525H135Q175 525 175 503V20Q175 -2 135 -2H131Q91 -2 91 20ZM72 597Q58 584 36 584T13 598Q13 606 19 616L75 704Q90 726 121 726H146Q177 726 192 704L249 616Q255
607 255 599Q255 584 233 584T196 597L133 671L72 597Z" />
<glyph unicode="&#xef;" glyph-name="idieresis" horiz-adv-x="265" d="M91 20V503Q91 525 131 525H135Q175 525 175 503V20Q175 -2 135 -2H131Q91 -2 91 20ZM204 607Q164 607 164 629V680Q164 702 204 702H208Q248 702 248 680V629Q248 607 208 607H204ZM60 607Q20
607 20 629V680Q20 702 60 702H64Q104 702 104 680V629Q104 607 64 607H60Z" />
<glyph unicode="&#xf0;" glyph-name="eth" horiz-adv-x="569" d="M321 607L235 595Q225 595 217 605T209 626T224 640L296 650Q270 688 270 698Q270 714 313 714Q329 714 341 700T372 660Q448 671 450 671Q462 671 468 659T475 639Q475 628 460 626L400 618Q514
439 514 259Q514 129 457 62T287 -6T115 62T55 259T115 459T287 529Q331 529 367 517Q345 565 321 607ZM211 66T284 66T392 113T427 261T392 409T284 457T176 409T141 261T176 114Z" />
<glyph unicode="&#xf1;" glyph-name="ntilde" horiz-adv-x="557" d="M86 20V371Q86 432 81 458Q74 494 74 497Q74 509 93 514T122 520T137 518T144 512T150 503T154 491T157 479T160 466T163 454Q230 529 312 529T438 486T482 367V20Q482 -2 442 -2H438Q398 -2
398 20V359Q398 405 372 430T296 456Q224 456 170 386V20Q170 -2 130 -2H126Q86 -2 86 20ZM311 615T270 625T216 635T186 629T158 622T138 632T129 652Q129 671 163 689T231 708T305 698T362 688T393 694T418 701T437 690T447 671Q447 652 413 634T345 615Z" />
<glyph unicode="&#xf2;" glyph-name="ograve" horiz-adv-x="569" d="M174 -6T115 62T55 259T115 459T286 529T455 460T514 260T457 62T287 -6ZM211 66T284 66T392 113T427 261T392 409T284 457T177 410T143 262T177 114ZM351 625T351 615T323 605T277 623Q189
724 186 729T183 739Q183 752 230 752T293 726Q351 625 351 615Z" />
<glyph unicode="&#xf3;" glyph-name="oacute" horiz-adv-x="569" d="M174 -6T115 62T55 259T115 459T286 529T455 460T514 260T457 62T287 -6ZM211 66T284 66T392 113T427 261T392 409T284 457T177 410T143 262T177 114ZM396 732T387 720T347 674T302 623T257
605T228 615T286 726Q301 752 348 752T396 739Q396 732 387 720Z" />
<glyph unicode="&#xf4;" glyph-name="ocircumflex" horiz-adv-x="569" d="M174 -6T115 62T55 259T115 459T286 529T455 460T514 260T457 62T287 -6ZM211 66T284 66T392 113T427 261T392 409T284 457T177 410T143 262T177 114ZM222 597Q208 584 186 584T163 598Q163
606 169 616L225 704Q240 726 271 726H296Q327 726 342 704L399 616Q405 607 405 599Q405 584 383 584T346 597L283 671L222 597Z" />
<glyph unicode="&#xf5;" glyph-name="otilde" horiz-adv-x="569" d="M174 -6T115 62T55 259T115 459T286 529T455 460T514 260T457 62T287 -6ZM211 66T284 66T392 113T427 261T392 409T284 457T177 410T143 262T177 114ZM307 615T266 625T212 635T182 629T154
622T134 632T125 652Q125 671 159 689T227 708T301 698T358 688T389 694T414 701T433 690T443 671Q443 652 409 634T341 615Z" />
<glyph unicode="&#xf6;" glyph-name="odieresis" horiz-adv-x="569" d="M174 -6T115 62T55 259T115 459T286 529T455 460T514 260T457 62T287 -6ZM211 66T284 66T392 113T427 261T392 409T284 457T177 410T143 262T177 114ZM354 607Q314 607 314 629V680Q314 702
354 702H358Q398 702 398 680V629Q398 607 358 607H354ZM210 607Q170 607 170 629V680Q170 702 210 702H214Q254 702 254 680V629Q254 607 214 607H210Z" />
<glyph unicode="&#xf7;" glyph-name="divide" horiz-adv-x="560" d="M238 390V441Q238 463 278 463H282Q322 463 322 441V390Q322 368 282 368H278Q238 368 238 390ZM78 197Q48 197 48 227V234Q48 264 78 264H482Q512 264 512 234V227Q512 197 482 197H78ZM238
20V71Q238 93 278 93H282Q322 93 322 71V20Q322 -2 282 -2H278Q238 -2 238 20Z" />
<glyph unicode="&#xf8;" glyph-name="oslash" horiz-adv-x="569" d="M80 2T72 9T64 22T71 37L102 74Q55 139 55 259Q55 339 76 395T133 478Q198 528 292 528T445 473L479 513Q487 521 493 521T507 514T515 500T509 486L470 441Q514 374 514 259Q514 -5 287 -5Q187
-5 130 44L101 10Q93 2 87 2ZM391 410Q356 456 285 456T178 411T142 261Q142 186 160 142L391 410ZM183 105Q217 67 285 67T390 112T427 261Q427 330 411 372L183 105Z" />
<glyph unicode="&#xf9;" glyph-name="ugrave" horiz-adv-x="557" d="M75 156V503Q75 525 115 525H119Q159 525 159 503V164Q159 118 185 93T261 67Q333 67 387 137V503Q387 525 427 525H431Q471 525 471 503V148Q471 88 476 61Q483 24 483 22Q483 10 464 5T435
-1T420 1T413 8T407 17T403 30T400 42T397 56T394 69Q327 -6 245 -6T119 37T75 156ZM342 625T342 615T313 605T268 623Q180 724 177 729T174 739Q174 752 221 752T284 726Q342 625 342 615Z" />
<glyph unicode="&#xfa;" glyph-name="uacute" horiz-adv-x="557" d="M75 156V503Q75 525 115 525H119Q159 525 159 503V164Q159 118 185 93T261 67Q333 67 387 137V503Q387 525 427 525H431Q471 525 471 503V148Q471 88 476 61Q483 24 483 22Q483 10 464 5T435
-1T420 1T413 8T407 17T403 30T400 42T397 56T394 69Q327 -6 245 -6T119 37T75 156ZM387 732T378 720T338 674T292 623T248 605T219 615T277 726Q292 752 339 752T387 739Q387 732 378 720Z" />
<glyph unicode="&#xfb;" glyph-name="ucircumflex" horiz-adv-x="557" d="M75 156V503Q75 525 115 525H119Q159 525 159 503V164Q159 118 185 93T261 67Q333 67 387 137V503Q387 525 427 525H431Q471 525 471 503V148Q471 88 476 61Q483 24 483 22Q483 10 464
5T435 -1T420 1T413 8T407 17T403 30T400 42T397 56T394 69Q327 -6 245 -6T119 37T75 156ZM213 597Q199 584 177 584T154 598Q154 606 160 616L216 704Q231 726 262 726H287Q318 726 333 704L390 616Q396 607 396 599Q396 584 374 584T337 597L274 671L213 597Z"
/>
<glyph unicode="&#xfc;" glyph-name="udieresis" horiz-adv-x="557" d="M75 156V503Q75 525 115 525H119Q159 525 159 503V164Q159 118 185 93T261 67Q333 67 387 137V503Q387 525 427 525H431Q471 525 471 503V148Q471 88 476 61Q483 24 483 22Q483 10 464 5T435
-1T420 1T413 8T407 17T403 30T400 42T397 56T394 69Q327 -6 245 -6T119 37T75 156ZM345 607Q305 607 305 629V680Q305 702 345 702H349Q389 702 389 680V629Q389 607 349 607H345ZM201 607Q161 607 161 629V680Q161 702 201 702H205Q245 702 245 680V629Q245 607
205 607H201Z" />
<glyph unicode="&#xfd;" glyph-name="yacute" horiz-adv-x="481" d="M18 508Q18 525 61 525H69Q102 525 109 509L245 148L378 509Q383 525 422 525T462 508Q462 503 459 494L202 -187Q194 -208 155 -208H140Q107 -208 107 -192Q107 -189 196 28L21 495Q18 504
18 508ZM352 732T343 720T303 674T258 623T213 605T184 615T242 726Q257 752 304 752T352 739Q352 732 343 720Z" />
<glyph unicode="&#xfe;" glyph-name="thorn" horiz-adv-x="570" d="M169 -186Q169 -208 129 -208H125Q85 -208 85 -186V730Q85 752 125 752H129Q169 752 169 730V461Q238 529 324 529T462 455T515 265V256Q515 133 459 64T319 -6T169 45V-186ZM290 68H296Q360
69 393 117T427 258T395 403T298 456T169 387V113Q223 68 290 68Z" />
<glyph unicode="&#xff;" glyph-name="ydieresis" horiz-adv-x="481" d="M18 508Q18 525 61 525H69Q102 525 109 509L245 148L378 509Q383 525 422 525T462 508Q462 503 459 494L202 -187Q194 -208 155 -208H140Q107 -208 107 -192Q107 -189 196 28L21 495Q18 504
18 508ZM310 607Q270 607 270 629V680Q270 702 310 702H314Q354 702 354 680V629Q354 607 314 607H310ZM166 607Q126 607 126 629V680Q126 702 166 702H170Q210 702 210 680V629Q210 607 170 607H166Z" />
<glyph unicode="&#x2013;" glyph-name="endash" horiz-adv-x="500" d="M20 230Q0 230 0 260V270Q0 300 20 300H480Q500 300 500 270V260Q500 230 480 230H20Z" />
<glyph unicode="&#x2014;" glyph-name="emdash" horiz-adv-x="1000" d="M20 230Q0 230 0 260V270Q0 300 20 300H980Q1000 300 1000 270V260Q1000 230 980 230H20Z" />
<glyph unicode="&#x2018;" glyph-name="quoteleft" horiz-adv-x="212" d="M98 515Q58 515 58 543Q58 624 94 681T160 739T190 724Q190 718 181 700Q147 635 147 547Q147 515 107 515H98Z" />
<glyph unicode="&#x2019;" glyph-name="quoteright" horiz-adv-x="212" d="M164 645T128 588T62 530T32 545Q32 551 41 569Q75 637 75 722Q75 754 115 754H124Q164 754 164 726Q164 645 128 588Z" />
<glyph unicode="&#x201a;" glyph-name="quotesinglbase" horiz-adv-x="198" d="M55 76Q55 108 95 108H104Q144 108 144 80Q144 -1 108 -58T42 -116T12 -101Q12 -95 21 -77Q55 -9 55 76Z" />
<glyph unicode="&#x201c;" glyph-name="quotedblleft" horiz-adv-x="350" d="M219 515Q179 515 179 543Q179 624 215 681T281 739T311 724Q311 718 302 700Q268 635 268 547Q268 515 228 515H219ZM80 515Q40 515 40 543Q40 624 76 681T142 739T172 724Q172 718
163 700Q129 635 129 547Q129 515 89 515H80Z" />
<glyph unicode="&#x201d;" glyph-name="quotedblright" horiz-adv-x="350" d="M305 645T269 588T203 530T173 545Q173 551 182 569Q216 637 216 722Q216 754 256 754H265Q305 754 305 726Q305 645 269 588ZM166 645T130 588T64 530T34 545Q34 551 43 569Q77 637
77 722Q77 754 117 754H126Q166 754 166 726Q166 645 130 588Z" />
<glyph unicode="&#x201e;" glyph-name="quotedblbase" horiz-adv-x="336" d="M194 76Q194 108 234 108H243Q283 108 283 80Q283 -1 247 -58T181 -116T151 -101Q151 -95 160 -77Q194 -9 194 76ZM55 76Q55 108 95 108H104Q144 108 144 80Q144 -1 108 -58T42 -116T12
-101Q12 -95 21 -77Q55 -9 55 76Z" />
<glyph unicode="&#x2022;" glyph-name="bullet" horiz-adv-x="336" d="M220 201T167 201T78 237T42 326T78 415T167 452T256 415T293 326T257 238Z" />
<glyph unicode="&#x2039;" glyph-name="guilsinglleft" horiz-adv-x="300" d="M46 246T46 258T59 286L189 442Q200 454 210 454T233 444T246 424T238 402L127 258L238 113Q246 102 246 93T234 73T211 61T189 74L59 230Q46 246 46 258Z" />
<glyph unicode="&#x203a;" glyph-name="guilsinglright" horiz-adv-x="300" d="M100 61T89 61T66 72T54 93T62 113L173 258L62 402Q54 413 54 423T66 444T89 454T111 442L241 286Q254 270 254 258T241 230L111 74Q100 61 89 61Z" />
</font>
</defs>
</svg>
